# xmcd CD database file
#
# Track frame offsets:
#	150
#	13200
#	31937
#	50990
#	62635
#	75562
#	92437
#	109310
#	126777
#	147485
#	159477
#	169930
#
# Disc length: 2454 seconds
#
# Revision: 0
# Processed by: cddbd v1.5.1PL2 Copyright (c) Steve Scherf et al.
# Submitted via: CDex 1.51
#
DISCID=a209940c
DTITLE=シンフォニック・エンジェルズ - ミッフィーのおやすみオルゴール
DYEAR=1900
DGENRE=Anime
TTITLE0=ブラームスの子守歌
TTITLE1=星に願いを
TTITLE2=守ってあげたい
TTITLE3=ゆりかごの歌
TTITLE4=素晴らしき世界
TTITLE5=オリビアを聴きながら
TTITLE6=ドリーム
TTITLE7=スイート・メモリーズ
TTITLE8=モーツァルトの子守歌
TTITLE9=キラキラ星
TTITLE10=トロイメライ
TTITLE11=江戸子守歌
EXTD=
EXTT0=
EXTT1=
EXTT2=
EXTT3=
EXTT4=
EXTT5=
EXTT6=
EXTT7=
EXTT8=
EXTT9=
EXTT10=
EXTT11=
PLAYORDER=
